<svg width="18" height="14" viewBox="0 0 18 14" fill="none" xmlns="http://www.w3.org/2000/svg">
<path fill-rule="evenodd" clip-rule="evenodd" d="M9 1H17V3H9V1ZM1 11H9V13H1V11ZM17 6H1V8H17V6Z" fill="#202224"/>
<path d="M17 1H17.25V0.75H17V1ZM9 1V0.75H8.75V1H9ZM17 3V3.25H17.25V3H17ZM9 3H8.75V3.25H9V3ZM9 11H9.25V10.75H9V11ZM1 11V10.75H0.75V11H1ZM9 13V13.25H9.25V13H9ZM1 13H0.75V13.25H1V13ZM1 6V5.75H0.75V6H1ZM17 6H17.25V5.75H17V6ZM1 8H0.75V8.25H1V8ZM17 8V8.25H17.25V8H17ZM17 0.75H9V1.25H17V0.75ZM17.25 3V1H16.75V3H17.25ZM9 3.25H17V2.75H9V3.25ZM8.75 1V3H9.25V1H8.75ZM9 10.75H1V11.25H9V10.75ZM9.25 13V11H8.75V13H9.25ZM1 13.25H9V12.75H1V13.25ZM0.75 11V13H1.25V11H0.75ZM1 6.25H17V5.75H1V6.25ZM1.25 8V6H0.75V8H1.25ZM17 7.75H1V8.25H17V7.75ZM16.75 6V8H17.25V6H16.75Z" fill="white"/>
</svg>
